<svg width="25" height="24" viewBox="0 0 25 24" fill="none" xmlns="http://www.w3.org/2000/svg">
<g clip-path="url(#clip0_1496_3072)">
<path d="M19.7746 12.0108C19.0916 11.665 18.2883 11.8032 17.7578 12.2966L15.994 11.312C16.219 10.6993 16.3418 10.0377 16.3418 9.34799C16.3418 8.31658 16.067 7.34812 15.5869 6.51195L17.0954 5.21726C17.3227 5.34817 17.5781 5.42772 17.8474 5.44824C17.8933 5.45178 17.9394 5.45354 17.9855 5.45354C18.4099 5.45354 18.816 5.30365 19.1414 5.02435C19.5021 4.71484 19.7206 4.28343 19.7567 3.80948C19.7929 3.33565 19.6423 2.87605 19.3327 2.51541C19.0233 2.15478 18.5918 1.93629 18.1179 1.90011C17.644 1.86358 17.1845 2.01454 16.8239 2.32405C16.4632 2.63356 16.2447 3.06496 16.2086 3.53891C16.188 3.80813 16.2279 4.07269 16.3228 4.31716L14.8899 5.54697C13.8429 4.37433 12.3205 3.63468 10.6284 3.63468C8.98649 3.63468 7.50437 4.33115 6.46126 5.44385L3.92647 3.15242C4.20471 2.46587 4.03319 1.64837 3.4426 1.13737C2.70073 0.495458 1.57483 0.576869 0.932915 1.31877C0.291004 2.06072 0.372375 3.18654 1.11432 3.82846C1.44051 4.11068 1.84871 4.26228 2.27577 4.26228C2.31926 4.26228 2.36295 4.26073 2.40672 4.25757C2.66835 4.23863 2.91717 4.16386 3.13997 4.04042L5.7411 6.39168C5.21714 7.25469 4.91518 8.26672 4.91518 9.34799C4.91518 10.916 5.55025 12.3384 6.57656 13.3718L3.56651 16.3819C2.90531 16.0669 2.08847 16.1824 1.54173 16.7291C0.848065 17.4228 0.848065 18.5516 1.54173 19.2453C1.88857 19.5922 2.34421 19.7656 2.79986 19.7656C3.25546 19.7656 3.71111 19.5922 4.05798 19.2453C4.60464 18.6986 4.72017 17.8819 4.40521 17.2206L7.49975 14.126C8.39914 14.717 9.47427 15.0613 10.6285 15.0613C11.3664 15.0613 12.072 14.9207 12.72 14.665L13.6903 16.4122C13.5157 16.6213 13.3916 16.868 13.3278 17.1329C13.2157 17.5948 13.2903 18.0727 13.5377 18.4784C13.7851 18.8842 14.1757 19.1694 14.6375 19.2814C14.7778 19.3154 14.9194 19.3322 15.0601 19.3322C15.3829 19.3322 15.7004 19.2438 15.983 19.0715C16.3888 18.8241 16.674 18.4335 16.786 17.9717C16.898 17.5098 16.8235 17.0319 16.5761 16.6262C16.3287 16.2204 15.9381 15.9352 15.4763 15.8232C15.221 15.7613 14.9609 15.7566 14.7107 15.8063L13.7721 14.1163C14.4553 13.6642 15.0342 13.0715 15.4701 12.3779L17.2096 13.349C17.1066 14.082 17.4709 14.833 18.1672 15.1855C18.4154 15.3115 18.6897 15.3772 18.968 15.3772C19.6179 15.3772 20.2453 15.0202 20.5583 14.4018C21.0015 13.5266 20.6499 12.4539 19.7746 12.0108ZM17.3914 3.62906C17.3971 3.55135 17.4182 3.47554 17.4534 3.40603C17.4886 3.33652 17.5372 3.27469 17.5965 3.22411C17.6555 3.17319 17.724 3.13449 17.798 3.11024C17.8721 3.08599 17.9502 3.07668 18.0279 3.08283C18.1056 3.08854 18.1814 3.10961 18.2509 3.14481C18.3204 3.18002 18.3822 3.22866 18.4328 3.28792L18.4328 3.28796C18.4837 3.34695 18.5224 3.41544 18.5466 3.48948C18.5709 3.56351 18.5802 3.64162 18.5741 3.71929C18.5684 3.797 18.5473 3.87281 18.5121 3.94232C18.4769 4.01183 18.4282 4.07367 18.369 4.12425C18.2487 4.22736 18.0951 4.27789 17.9376 4.26552C17.8599 4.25981 17.7841 4.23874 17.7146 4.20353C17.6451 4.16832 17.5832 4.11967 17.5327 4.06039C17.4818 4.00141 17.4431 3.93292 17.4188 3.85888C17.3946 3.78484 17.3852 3.70673 17.3914 3.62906ZM2.3212 3.07445C2.16308 3.08631 2.01023 3.03507 1.89039 2.93144C1.64307 2.7175 1.61595 2.34219 1.82989 2.09488C1.94704 1.9595 2.11247 1.89011 2.27881 1.89011C2.41637 1.89011 2.55456 1.93756 2.66645 2.03439C2.91377 2.24833 2.94085 2.62363 2.72691 2.87095C2.67611 2.93003 2.6141 2.97844 2.54445 3.01337C2.47481 3.0483 2.39893 3.06906 2.3212 3.07445ZM15.0558 16.959C15.1027 16.959 15.1499 16.9646 15.1966 16.9759C15.2724 16.9941 15.3438 17.0271 15.4068 17.073C15.4697 17.119 15.5229 17.177 15.5632 17.2436V17.2436C15.6457 17.3789 15.6706 17.5381 15.6332 17.6921C15.5959 17.8461 15.5008 17.9763 15.3655 18.0587C15.2991 18.0995 15.2253 18.1267 15.1483 18.1387C15.0713 18.1507 14.9927 18.1473 14.9171 18.1287C14.8413 18.1105 14.7699 18.0775 14.7069 18.0316C14.644 17.9856 14.5908 17.9276 14.5505 17.861C14.468 17.7257 14.4431 17.5665 14.4805 17.4125C14.5178 17.2585 14.6129 17.1283 14.7482 17.0459C14.8407 16.9891 14.9472 16.959 15.0558 16.959ZM3.21924 18.4066C3.10723 18.5186 2.95829 18.5803 2.79986 18.5803C2.64142 18.5803 2.49252 18.5186 2.38051 18.4066C2.14929 18.1753 2.14929 17.7991 2.38051 17.5678C2.49252 17.4558 2.64146 17.3941 2.7999 17.3941C2.95833 17.3941 3.10723 17.4558 3.21924 17.5678C3.45047 17.7991 3.45047 18.1753 3.21924 18.4066ZM10.6285 13.8752C8.13221 13.8752 6.10134 11.8443 6.10134 9.34799C6.10134 6.85167 8.13221 4.8208 10.6285 4.8208C13.1248 4.8208 15.1557 6.85167 15.1557 9.34799C15.1557 11.8443 13.1248 13.8752 10.6285 13.8752ZM19.5001 13.8661C19.3523 14.1578 18.9948 14.275 18.7031 14.1273C18.6334 14.0923 18.5715 14.0438 18.5207 13.9847C18.47 13.9256 18.4314 13.857 18.4073 13.7829C18.3829 13.7089 18.3733 13.6308 18.3792 13.5531C18.3852 13.4754 18.4064 13.3997 18.4418 13.3303C18.4768 13.2606 18.5253 13.1987 18.5844 13.1479C18.6435 13.0972 18.7121 13.0586 18.7862 13.0345C18.846 13.0148 18.9086 13.0048 18.9716 13.0047C19.0634 13.0047 19.1546 13.0263 19.2389 13.069C19.5306 13.2167 19.6478 13.5743 19.5001 13.8661Z" fill="#333333"/>
<path d="M9.206 8.22125C8.22493 8.22125 7.42676 9.01942 7.42676 10.0005C7.42676 10.9816 8.22493 11.7797 9.206 11.7797C10.1871 11.7797 10.9852 10.9816 10.9852 10.0005C10.9852 9.01942 10.1871 8.22125 9.206 8.22125ZM9.206 10.5936C8.87898 10.5936 8.61292 10.3275 8.61292 10.0005C8.61292 9.67347 8.87898 9.40741 9.206 9.40741C9.53303 9.40741 9.79908 9.67347 9.79908 10.0005C9.79908 10.3275 9.53303 10.5936 9.206 10.5936ZM12.3691 7.58863H13.5553V8.77479H12.3691V7.58863ZM12.1714 10.1982H13.3576V11.3844H12.1714V10.1982ZM9.97701 6.00708H11.1632V7.19324H9.97701V6.00708Z" fill="#333333"/>
</g>
<defs>
<clipPath id="clip0_1496_3072">
<rect width="24" height="24" fill="white" transform="translate(0.5)"/>
</clipPath>
</defs>
</svg>
