<svg width="20" height="21" viewBox="0 0 20 21" fill="none" xmlns="http://www.w3.org/2000/svg">
<g clip-path="url(#clip0_3671_4108)">
<path d="M9.47368 12.6053C9.47368 12.1865 9.30733 11.7849 9.01122 11.4888C8.71511 11.1927 8.3135 11.0263 7.89474 11.0263H1.57895C1.16018 11.0263 0.758573 11.1927 0.462463 11.4888C0.166353 11.7849 0 12.1865 0 12.6053V18.9211C0 19.3398 0.166353 19.7414 0.462463 20.0375C0.758573 20.3336 1.16018 20.5 1.57895 20.5H7.89474C8.3135 20.5 8.71511 20.3336 9.01122 20.0375C9.30733 19.7414 9.47368 19.3398 9.47368 18.9211V12.6053ZM14.7368 15.2368H11.0526C10.913 15.2368 10.7792 15.2923 10.6805 15.391C10.5818 15.4897 10.5263 15.6236 10.5263 15.7632C10.5263 15.9027 10.5818 16.0366 10.6805 16.1353C10.7792 16.234 10.913 16.2895 11.0526 16.2895H14.7368V19.9737C14.7368 20.1133 14.7923 20.2471 14.891 20.3458C14.9897 20.4445 15.1236 20.5 15.2632 20.5C15.4027 20.5 15.5366 20.4445 15.6353 20.3458C15.734 20.2471 15.7895 20.1133 15.7895 19.9737V16.2895H19.4737C19.6133 16.2895 19.7471 16.234 19.8458 16.1353C19.9445 16.0366 20 15.9027 20 15.7632C20 15.6236 19.9445 15.4897 19.8458 15.391C19.7471 15.2923 19.6133 15.2368 19.4737 15.2368H15.7895V11.5526C15.7895 11.413 15.734 11.2792 15.6353 11.1805C15.5366 11.0818 15.4027 11.0263 15.2632 11.0263C15.1236 11.0263 14.9897 11.0818 14.891 11.1805C14.7923 11.2792 14.7368 11.413 14.7368 11.5526V15.2368ZM8.42105 12.6053V18.9211C8.42105 19.0606 8.3656 19.1945 8.2669 19.2932C8.1682 19.3919 8.03432 19.4474 7.89474 19.4474H1.57895C1.43936 19.4474 1.30549 19.3919 1.20679 19.2932C1.10808 19.1945 1.05263 19.0606 1.05263 18.9211V12.6053C1.05263 12.4657 1.10808 12.3318 1.20679 12.2331C1.30549 12.1344 1.43936 12.0789 1.57895 12.0789H7.89474C8.03432 12.0789 8.1682 12.1344 8.2669 12.2331C8.3656 12.3318 8.42105 12.4657 8.42105 12.6053ZM20 2.07895C20 1.66018 19.8336 1.25857 19.5375 0.962463C19.2414 0.666353 18.8398 0.5 18.4211 0.5H12.1053C11.6865 0.5 11.2849 0.666353 10.9888 0.962463C10.6927 1.25857 10.5263 1.66018 10.5263 2.07895V8.39474C10.5263 8.8135 10.6927 9.21511 10.9888 9.51122C11.2849 9.80733 11.6865 9.97368 12.1053 9.97368H18.4211C18.8398 9.97368 19.2414 9.80733 19.5375 9.51122C19.8336 9.21511 20 8.8135 20 8.39474V2.07895ZM9.47368 2.07895C9.47368 1.66018 9.30733 1.25857 9.01122 0.962463C8.71511 0.666353 8.3135 0.5 7.89474 0.5H1.57895C1.16018 0.5 0.758573 0.666353 0.462463 0.962463C0.166353 1.25857 0 1.66018 0 2.07895V8.39474C0 8.8135 0.166353 9.21511 0.462463 9.51122C0.758573 9.80733 1.16018 9.97368 1.57895 9.97368H7.89474C8.3135 9.97368 8.71511 9.80733 9.01122 9.51122C9.30733 9.21511 9.47368 8.8135 9.47368 8.39474V2.07895ZM18.9474 2.07895V8.39474C18.9474 8.53432 18.8919 8.6682 18.7932 8.7669C18.6945 8.8656 18.5606 8.92105 18.4211 8.92105H12.1053C11.9657 8.92105 11.8318 8.8656 11.7331 8.7669C11.6344 8.6682 11.5789 8.53432 11.5789 8.39474V2.07895C11.5789 1.93936 11.6344 1.80549 11.7331 1.70679C11.8318 1.60808 11.9657 1.55263 12.1053 1.55263H18.4211C18.5606 1.55263 18.6945 1.60808 18.7932 1.70679C18.8919 1.80549 18.9474 1.93936 18.9474 2.07895ZM8.42105 2.07895V8.39474C8.42105 8.53432 8.3656 8.6682 8.2669 8.7669C8.1682 8.8656 8.03432 8.92105 7.89474 8.92105H1.57895C1.43936 8.92105 1.30549 8.8656 1.20679 8.7669C1.10808 8.6682 1.05263 8.53432 1.05263 8.39474V2.07895C1.05263 1.93936 1.10808 1.80549 1.20679 1.70679C1.30549 1.60808 1.43936 1.55263 1.57895 1.55263H7.89474C8.03432 1.55263 8.1682 1.60808 8.2669 1.70679C8.3656 1.80549 8.42105 1.93936 8.42105 2.07895Z" fill="#333333"/>
</g>
<defs>
<clipPath id="clip0_3671_4108">
<rect width="20" height="20" fill="white" transform="translate(0 0.5)"/>
</clipPath>
</defs>
</svg>
