<svg width="17" height="17" viewBox="0 0 17 17" fill="none" xmlns="http://www.w3.org/2000/svg">
<path d="M2.77535 13.6079H2.86233L5.17907 13.3944C5.50326 13.3628 5.80372 13.2205 6.03302 12.9912L14.7781 4.24605C15.1893 3.83488 15.4186 3.2893 15.4186 2.71209C15.4186 2.13488 15.1893 1.5893 14.7781 1.17814L14.2167 0.616744C13.3944 -0.205581 11.9633 -0.205581 11.1409 0.616744L10.026 1.73163L2.40372 9.35395C2.17442 9.58325 2.03209 9.88372 2.00837 10.2079L1.79488 12.5247C1.77116 12.8172 1.87395 13.1019 2.07954 13.3153C2.2693 13.5051 2.51442 13.6079 2.77535 13.6079ZM12.6828 1.16233C12.9358 1.16233 13.1888 1.25721 13.3786 1.45488L13.94 2.01628C14.0324 2.10709 14.1057 2.21538 14.1558 2.33485C14.2059 2.45431 14.2317 2.58256 14.2317 2.71209C14.2317 2.84163 14.2059 2.96987 14.1558 3.08934C14.1057 3.2088 14.0324 3.3171 13.94 3.40791L13.2442 4.10372L11.2912 2.1507L11.987 1.45488C12.1767 1.26512 12.4298 1.16233 12.6828 1.16233ZM3.18651 10.3186C3.18651 10.2712 3.21023 10.2316 3.24186 10.2L10.4451 2.98884L12.3981 4.94186L5.19488 12.1451C5.19488 12.1451 5.11581 12.2005 5.07628 12.2005L2.99674 12.3902L3.18651 10.3107V10.3186ZM17 16.1302C17 16.4544 16.7312 16.7233 16.407 16.7233H0.593023C0.268837 16.7233 0 16.4544 0 16.1302C0 15.806 0.268837 15.5372 0.593023 15.5372H16.407C16.7312 15.5372 17 15.806 17 16.1302Z" fill="#333333" fill-opacity="0.68"/>
</svg>
