<svg width="25" height="24" viewBox="0 0 25 24" fill="none" xmlns="http://www.w3.org/2000/svg">
<g clip-path="url(#clip0_1503_3118)">
<path d="M21.8472 13.2154C21.6886 13.0096 21.3931 12.9713 21.1872 13.13C20.9814 13.2887 20.9431 13.5842 21.1018 13.79C21.5856 14.4176 21.8413 15.1693 21.8413 15.9639C21.8413 16.2238 22.052 16.4345 22.3119 16.4345C22.5718 16.4345 22.7825 16.2237 22.7825 15.9639C22.7825 14.9595 22.4591 14.0091 21.8472 13.2154Z" fill="black"/>
<path d="M20.2661 10.0581C21.2215 9.4132 21.851 8.32069 21.851 7.08389C21.851 5.10637 20.2422 3.49753 18.2647 3.49753C16.2872 3.49753 14.6783 5.10637 14.6783 7.08389C14.6783 8.32012 15.3073 9.41222 16.262 10.0572C15.5621 10.2944 14.9102 10.6547 14.3371 11.1213C13.8479 10.6508 13.1914 10.3799 12.5 10.3799C11.8087 10.3799 11.1522 10.6509 10.6633 11.1213C10.0901 10.6548 9.43806 10.2944 8.73805 10.0572C9.6928 9.41217 10.3217 8.32008 10.3217 7.0838C10.3217 5.10628 8.71287 3.49744 6.73536 3.49744C4.75808 3.49744 3.14947 5.10628 3.14947 7.0838C3.14947 8.32059 3.77886 9.41306 4.73417 10.058C2.27848 10.8924 0.505953 13.2185 0.500656 15.9517C0.500516 15.9558 0.5 15.9598 0.5 15.9639C0.5 16.6864 0.910531 17.7526 2.86644 18.7295C4.26013 19.4256 6.17534 19.9489 8.40509 20.2426C9.713 20.4151 11.0908 20.5027 12.5 20.5027C13.9097 20.5027 15.2876 20.4152 16.5954 20.2426C18.825 19.9489 20.7401 19.4256 22.1337 18.7295C24.0895 17.7526 24.5 16.6864 24.5 15.9639C24.5 13.2255 22.7255 10.8937 20.2661 10.0581ZM15.6195 7.08389C15.6195 5.62533 16.8062 4.43873 18.2647 4.43873C19.7232 4.43873 20.9098 5.62537 20.9098 7.08389C20.9098 8.54222 19.7232 9.72858 18.2647 9.72858C16.8062 9.72858 15.6195 8.54222 15.6195 7.08389ZM11.0959 12.0562C11.4156 11.5959 11.9405 11.3211 12.5 11.3211C12.7761 11.3212 13.048 11.3881 13.2925 11.5162C13.5371 11.6442 13.7471 11.8295 13.9045 12.0562L13.9047 12.0566C14.1042 12.3434 14.2096 12.6802 14.2096 13.0307C14.2096 13.9734 13.4427 14.7403 12.5 14.7403C11.5575 14.7403 10.7908 13.9733 10.7908 13.0306C10.7908 12.6796 10.8961 12.3429 11.0959 12.0562ZM4.09058 7.08389C4.09058 5.62533 5.27698 4.43873 6.73527 4.43873C8.19383 4.43873 9.38042 5.62537 9.38042 7.08389C9.38042 8.54222 8.19378 9.72858 6.73527 9.72858C5.27698 9.72858 4.09058 8.54222 4.09058 7.08389ZM7.9962 19.2339C6.09847 18.945 4.47847 18.4826 3.28705 17.8875C2.10017 17.2948 1.44523 16.6138 1.44144 15.9695C1.44144 15.9676 1.44172 15.9658 1.44172 15.9639C1.44167 13.0447 3.81641 10.6698 6.73531 10.6698C7.97713 10.6698 9.16189 11.0988 10.11 11.8845C9.93903 12.2398 9.84969 12.6293 9.84969 13.0307C9.84969 13.85 10.2233 14.5835 10.809 15.0702C9.16409 15.7389 8.00047 17.3527 7.9962 19.2339ZM16.0633 19.3599C14.9187 19.4934 13.7223 19.5615 12.5 19.5615C11.278 19.5615 10.0818 19.4934 8.93717 19.3599V19.2443C8.93717 17.2798 10.5354 15.6815 12.5 15.6815C14.4648 15.6815 16.0633 17.2798 16.0633 19.2443V19.3599ZM21.7131 17.8875C20.5218 18.4826 18.902 18.9449 17.0044 19.2339C17.0001 17.3527 15.8364 15.739 14.1914 15.0701C14.7772 14.5835 15.1509 13.8499 15.1509 13.0306C15.1509 12.6297 15.0616 12.2401 14.8904 11.8845C15.8381 11.0987 17.0227 10.6697 18.2648 10.6697C21.1839 10.6697 23.5588 13.0447 23.5588 15.9638C23.5588 16.6099 22.9033 17.293 21.7131 17.8875Z" fill="black"/>
<path d="M20.437 12.1099C19.8314 12.1099 19.8304 13.051 20.437 13.051C21.0426 13.051 21.0436 12.1099 20.437 12.1099Z" fill="black"/>
</g>
<defs>
<clipPath id="clip0_1503_3118">
<rect width="24" height="24" fill="white" transform="translate(0.5)"/>
</clipPath>
</defs>
</svg>
