<svg width="18" height="13" viewBox="0 0 18 13" fill="none" xmlns="http://www.w3.org/2000/svg">
<g clip-path="url(#clip0_1365_1954)">
<path fill-rule="evenodd" clip-rule="evenodd" d="M5.34352 2.23211C5.14369 3.00228 4.43898 3.57138 3.60026 3.57138C2.60615 3.57138 1.80029 2.77191 1.80029 1.78569C1.80029 0.79947 2.60615 0 3.60026 0C4.43898 0 5.14369 0.569099 5.34352 1.33927H17.5502C17.6696 1.33927 17.784 1.3863 17.8684 1.47002C17.9528 1.55374 18.0002 1.66729 18.0002 1.78569C18.0002 1.90409 17.9528 2.01764 17.8684 2.10136C17.784 2.18508 17.6696 2.23211 17.5502 2.23211H5.34352ZM4.50024 1.78569C4.50024 1.96228 4.44745 2.1349 4.34856 2.28173C4.24967 2.42855 4.10911 2.54299 3.94466 2.61057C3.78021 2.67815 3.59926 2.69583 3.42468 2.66138C3.2501 2.62693 3.08974 2.54189 2.96387 2.41702C2.83801 2.29216 2.75229 2.13307 2.71757 1.95987C2.68284 1.78668 2.70066 1.60716 2.76878 1.44401C2.8369 1.28087 2.95225 1.14142 3.10025 1.04332C3.24825 0.945208 3.42226 0.892844 3.60026 0.892844C3.83895 0.892844 4.06786 0.986911 4.23664 1.15435C4.40542 1.32179 4.50024 1.54889 4.50024 1.78569Z" fill="black"/>
<path d="M0.449991 2.2322H1.85666C1.81962 2.08955 1.79996 1.93992 1.79996 1.78578C1.79996 1.63163 1.81962 1.48201 1.85666 1.33936H0.449991C0.330646 1.33936 0.216189 1.38639 0.131799 1.47011C0.0474096 1.55383 0 1.66738 0 1.78578C0 1.90418 0.0474096 2.01773 0.131799 2.10145C0.216189 2.18517 0.330646 2.2322 0.449991 2.2322Z" fill="black"/>
<path fill-rule="evenodd" clip-rule="evenodd" d="M10.7433 10.2679C10.5434 9.49777 9.83863 8.92867 9 8.92867C8.16137 8.92867 7.45647 9.49777 7.25674 10.2679H0.44999C0.330646 10.2679 0.216189 10.315 0.131799 10.3987C0.0474096 10.4824 2.68215e-08 10.596 2.68215e-08 10.7144C2.68215e-08 10.8328 0.0474096 10.9463 0.131799 11.03C0.216189 11.1137 0.330646 11.1608 0.44999 11.1608H7.25664C7.45647 11.9309 8.16128 12.5 8.9999 12.5C9.83853 12.5 10.5434 11.9309 10.7432 11.1608H17.5498C17.6676 11.1584 17.7797 11.1103 17.8621 11.0268C17.9445 10.9434 17.9907 10.8312 17.9907 10.7144C17.9907 10.5975 17.9445 10.4853 17.8621 10.4019C17.7797 10.3184 17.6676 10.2703 17.5498 10.2679H10.7433ZM9 11.6072C9.4971 11.6072 9.89998 11.2075 9.89998 10.7144C9.89998 10.2212 9.4971 9.82151 9 9.82151C8.5029 9.82151 8.10002 10.2212 8.10002 10.7144C8.10002 11.2075 8.5029 11.6072 9 11.6072ZM16.1432 5.80362C15.9434 5.03345 15.2386 4.46436 14.4 4.46436C13.5614 4.46436 12.8564 5.03345 12.6567 5.80362H0.44999C0.330646 5.80362 0.216189 5.85065 0.131799 5.93438C0.0474096 6.0181 0 6.13164 0 6.25004C0 6.36844 0.0474096 6.48199 0.131799 6.56571C0.216189 6.64943 0.330646 6.69646 0.44999 6.69646H12.6567C12.8565 7.46663 13.5614 8.03573 14.4 8.03573C15.2386 8.03573 15.9435 7.46663 16.1432 6.69646H17.5499C17.6677 6.69406 17.7798 6.64598 17.8622 6.56252C17.9446 6.47906 17.9908 6.36688 17.9908 6.25004C17.9908 6.13321 17.9446 6.02103 17.8622 5.93757C17.7798 5.85411 17.6677 5.80602 17.5499 5.80362H16.1432ZM14.4 7.14289C14.8971 7.14289 15.3 6.7432 15.3 6.25004C15.3 5.75689 14.897 5.3572 14.4 5.3572C13.9029 5.3572 13.5 5.75689 13.5 6.25004C13.5 6.7432 13.9029 7.14289 14.4 7.14289Z" fill="black"/>
</g>
<defs>
<clipPath id="clip0_1365_1954">
<rect width="18" height="12.5" fill="white"/>
</clipPath>
</defs>
</svg>
