<svg width="24" height="23" viewBox="0 0 24 23" fill="none" xmlns="http://www.w3.org/2000/svg">
<g clip-path="url(#clip0_3496_6343)">
<path d="M19.1875 3.59375H4.8125C4.41555 3.59375 4.09375 3.91555 4.09375 4.3125V18.6875C4.09375 19.0845 4.41555 19.4062 4.8125 19.4062H19.1875C19.5845 19.4062 19.9062 19.0845 19.9062 18.6875V4.3125C19.9062 3.91555 19.5845 3.59375 19.1875 3.59375Z" stroke="#667085" stroke-width="1.5" stroke-linecap="round" stroke-linejoin="round"/>
<path d="M9.125 10.0625C9.91891 10.0625 10.5625 9.41891 10.5625 8.625C10.5625 7.83109 9.91891 7.1875 9.125 7.1875C8.33109 7.1875 7.6875 7.83109 7.6875 8.625C7.6875 9.41891 8.33109 10.0625 9.125 10.0625Z" stroke="#667085" stroke-width="1.5" stroke-linecap="round" stroke-linejoin="round"/>
<path d="M5.59277 19.4068L15.4441 9.55455C15.5109 9.48772 15.5902 9.43471 15.6774 9.39854C15.7647 9.36237 15.8582 9.34375 15.9527 9.34375C16.0471 9.34375 16.1406 9.36237 16.2279 9.39854C16.3151 9.43471 16.3944 9.48772 16.4612 9.55455L19.9058 13.0001" stroke="#667085" stroke-width="1.5" stroke-linecap="round" stroke-linejoin="round"/>
</g>
<defs>
<clipPath id="clip0_3496_6343">
<rect width="23" height="23" fill="white" transform="translate(0.5)"/>
</clipPath>
</defs>
</svg>
