<svg width="20" height="21" viewBox="0 0 20 21" fill="none" xmlns="http://www.w3.org/2000/svg">
<g clip-path="url(#clip0_1294_2246)">
<path d="M9.57222 13.5248C9.43359 13.664 9.43359 13.8898 9.57222 14.0289C9.70717 14.162 9.94111 14.162 10.0761 14.0278L13.3523 10.7514C13.4909 10.6123 13.4909 10.3864 13.3523 10.2473L13.3688 10.2314C13.1355 10.0312 12.4454 9.34027 10.0687 6.96417C9.93925 6.83906 9.70661 6.83906 9.57222 6.97031C9.43602 7.10705 9.4342 7.33162 9.56859 7.47017L12.2427 10.1435H0.356001C0.160041 10.1435 0 10.3028 0 10.4993C0 10.6958 0.16 10.8552 0.356001 10.8552L12.2415 10.8558L9.57222 13.5248Z" fill="#333333"/>
<path d="M19.065 0.5H6.31911C6.06994 0.5 5.83487 0.597 5.65834 0.774605C5.48186 0.950998 5.38477 1.18534 5.38477 1.43559V6.0639C5.38477 6.26044 5.54416 6.41971 5.7402 6.41971C5.93624 6.41971 6.0956 6.26048 6.0956 6.0639V1.21228H19.2885V19.7877H6.0956V14.9354C6.0956 14.7389 5.93624 14.5796 5.7402 14.5796C5.54416 14.5796 5.38477 14.7389 5.38477 14.9354V19.5643C5.38477 20.0801 5.80372 20.5 6.31911 20.5H19.065C19.5804 20.5 19.9999 20.0801 19.9999 19.5643V1.43564C19.9999 0.919863 19.5804 0.5 19.065 0.5Z" fill="#333333"/>
</g>
<defs>
<clipPath id="clip0_1294_2246">
<rect width="20" height="20" fill="white" transform="translate(0 0.5)"/>
</clipPath>
</defs>
</svg>
