<svg width="24" height="24" viewBox="0 0 24 24" fill="none" xmlns="http://www.w3.org/2000/svg">
<g clip-path="url(#clip0_1503_3108)">
<path d="M11.9997 23.0621C11.88 23.0624 11.7633 23.0251 11.6659 22.9554C11.6172 22.9189 10.4347 22.0678 8.84536 20.6469C8.65489 20.4792 8.45375 20.3002 8.25184 20.1143C6.88346 18.8533 4.92613 16.8762 3.37565 14.6156C3.33161 14.5538 3.30033 14.4838 3.28364 14.4098C3.26695 14.3357 3.26518 14.2591 3.27843 14.1844C3.29168 14.1096 3.31968 14.0383 3.36081 13.9745C3.40195 13.9107 3.45537 13.8557 3.51798 13.8128C3.58059 13.7699 3.65112 13.7399 3.72545 13.7245C3.79979 13.7091 3.87644 13.7087 3.95093 13.7233C4.02542 13.7379 4.09625 13.7672 4.1593 13.8095C4.22235 13.8518 4.27634 13.9062 4.31813 13.9695C5.49756 15.6884 7.12575 17.5223 9.0267 19.2739C9.22174 19.4545 9.41603 19.6267 9.60346 19.7905C10.376 20.4835 11.1751 21.1463 11.9989 21.7775C13.2265 20.8347 14.4021 19.826 15.5204 18.7558C16.5614 17.7671 17.5408 16.7155 18.453 15.6069C18.9452 14.9935 19.3368 14.4716 19.6804 13.9695C19.7661 13.8444 19.8979 13.7585 20.047 13.7307C20.196 13.7028 20.35 13.7353 20.4751 13.821C20.6002 13.9066 20.6861 14.0385 20.7139 14.1875C20.7418 14.3365 20.7093 14.4905 20.6236 14.6156C20.2177 15.202 19.7897 15.7728 19.3406 16.3269C18.398 17.4732 17.3858 18.5604 16.3097 19.5825C14.1886 21.613 12.4088 22.9006 12.3334 22.9539C12.2362 23.0241 12.1195 23.0619 11.9997 23.0621ZM22.3699 10.2933C22.2825 10.2935 22.1961 10.2736 22.1176 10.2351C22.039 10.1967 21.9703 10.1407 21.9168 10.0715C21.8633 10.0023 21.8264 9.92176 21.8089 9.83605C21.7914 9.75034 21.7939 9.66177 21.816 9.57715C22.376 7.44153 22.0941 5.60382 20.9551 3.95886C19.6164 2.01601 17.2233 1.83467 15.4305 2.31163C15.3859 2.32726 15.3403 2.34023 15.2941 2.35048C14.2041 2.66096 13.21 3.24111 12.4035 4.03734C12.2963 4.14435 12.1511 4.20446 11.9997 4.20446C11.8482 4.20446 11.703 4.14435 11.5958 4.03734C10.2396 2.68191 8.23965 1.94286 6.3707 2.11353C5.3726 2.20496 3.98441 2.5981 3.04498 3.9581C1.90517 5.60382 1.62327 7.44077 2.18327 9.57639C2.22006 9.72245 2.19769 9.87712 2.12103 10.0068C2.04437 10.1364 1.91962 10.2306 1.77391 10.2687C1.62821 10.3069 1.47333 10.286 1.34296 10.2105C1.21259 10.1351 1.11727 10.0113 1.07775 9.86591C0.437746 7.42248 0.782889 5.21601 2.10479 3.3082C3.03432 1.96343 4.51241 1.13524 6.26784 0.976006C8.28232 0.794673 10.4309 1.50629 11.9997 2.85486C12.8775 2.10357 13.9083 1.55239 15.0206 1.23963L15.0663 1.22896L15.141 1.2061C17.9044 0.470101 20.4941 1.27467 21.8953 3.30896C23.2164 5.21677 23.5623 7.42324 22.9223 9.86591C22.8903 9.98807 22.8188 10.0962 22.7188 10.1734C22.6189 10.2506 22.4962 10.2925 22.3699 10.2926V10.2933Z" fill="black"/>
<path d="M11.8827 17.1505C11.7489 17.1505 11.6194 17.1036 11.5167 17.018C11.4139 16.9324 11.3445 16.8134 11.3204 16.6819L10.1059 10.0701L9.07657 14.0129C9.04671 14.1274 8.98209 14.2297 8.89161 14.3058C8.80114 14.382 8.68927 14.4282 8.57143 14.4381C8.45396 14.4465 8.33671 14.419 8.23522 14.3592C8.13372 14.2995 8.05276 14.2104 8.00305 14.1036L6.84495 11.536L6.52495 12.2423C6.47969 12.3424 6.40653 12.4273 6.31424 12.4869C6.22195 12.5465 6.11443 12.5782 6.00457 12.5783H0.571429C0.419876 12.5783 0.274531 12.5181 0.167368 12.4109C0.0602039 12.3037 0 12.1584 0 12.0068C0 11.8553 0.0602039 11.7099 0.167368 11.6028C0.274531 11.4956 0.419876 11.4354 0.571429 11.4354H5.63581L6.32381 9.91008C6.50819 9.50094 7.18095 9.50094 7.36533 9.91008L8.37943 12.1592L9.65029 7.29065C9.71809 7.0316 9.94743 6.84417 10.224 6.86398C10.354 6.86882 10.4785 6.91789 10.5769 7.0031C10.6753 7.0883 10.7416 7.20453 10.765 7.33256L11.8827 13.4156L12.16 11.904C12.1841 11.7724 12.2535 11.6535 12.3563 11.5679C12.459 11.4822 12.5885 11.4354 12.7223 11.4354H13.981L14.6956 9.13598C14.7319 9.01967 14.8044 8.918 14.9025 8.8458C15.0007 8.7736 15.1193 8.73466 15.2411 8.73466C15.363 8.73466 15.4816 8.7736 15.5798 8.8458C15.6779 8.918 15.7504 9.01967 15.7867 9.13598L16.9661 12.9303L18.0632 9.94817C18.1025 9.84168 18.1726 9.74929 18.2646 9.6828C18.3566 9.61631 18.4664 9.57872 18.5798 9.57484C18.8046 9.55351 19.0255 9.69903 19.1208 9.91008L19.808 11.4354H23.4286C23.5801 11.4354 23.7255 11.4956 23.8326 11.6028C23.9398 11.7099 24 11.8553 24 12.0068C24 12.1584 23.9398 12.3037 23.8326 12.4109C23.7255 12.5181 23.5801 12.5783 23.4286 12.5783H19.4392C19.3292 12.5783 19.2214 12.5465 19.129 12.4868C19.0365 12.427 18.9633 12.3419 18.9181 12.2415L18.6537 11.6548L17.4575 14.9059C17.4169 15.0156 17.3436 15.1101 17.2476 15.1769C17.1515 15.2436 17.0373 15.2793 16.9204 15.2792H16.9051C16.7858 15.2762 16.6705 15.2359 16.5753 15.1638C16.4802 15.0918 16.4101 14.9917 16.3749 14.8777L15.2411 11.2305L14.9463 12.1767C14.9101 12.293 14.8377 12.3946 14.7397 12.4668C14.6417 12.539 14.5233 12.5781 14.4015 12.5783H13.1977L12.445 16.6819C12.4207 16.8133 12.3512 16.9321 12.2485 17.0175C12.1457 17.103 12.0163 17.1505 11.8827 17.1505Z" fill="black"/>
</g>
<defs>
<clipPath id="clip0_1503_3108">
<rect width="24" height="22.1241" fill="white" transform="translate(0 0.937988)"/>
</clipPath>
</defs>
</svg>
