<svg width="24" height="24" viewBox="0 0 24 24" fill="none" xmlns="http://www.w3.org/2000/svg">
<path d="M18.7104 1.62633C16.5888 -0.52327 13.1259 -0.54572 10.9763 1.58143L10.9314 1.62633L6.38524 6.17249C6.29544 6.223 6.22248 6.29596 6.17197 6.38577L1.59775 10.9544C-0.535018 13.0927 -0.529406 16.5557 1.60336 18.6884C3.75296 20.8156 7.21029 20.8156 9.3655 18.6884L9.37111 18.6828L13.9397 14.0974C13.9734 14.0749 14.0015 14.0525 14.0295 14.0244C14.0576 13.9964 14.08 13.9683 14.1025 13.9346L18.6655 9.36041C20.8151 7.23887 20.8319 3.77593 18.7104 1.62633ZM8.57413 17.8915C6.86231 19.5808 4.10655 19.5865 2.39473 17.8915C0.705353 16.1909 0.705353 13.4463 2.39473 11.7457L6.68271 7.45776L12.834 13.6203L8.57413 17.8915ZM17.8741 8.55782L13.6254 12.8177L7.47407 6.66639L11.7284 2.41209C13.4234 0.717101 16.1791 0.717101 17.8741 2.41209C19.5691 4.10707 19.5691 6.86283 17.8741 8.55782Z" fill="black"/>
<path d="M13.5183 4.14069C13.3051 3.91619 12.9515 3.91058 12.727 4.13508L10.785 6.04334C10.5605 6.26223 10.5605 6.61582 10.7738 6.83471C10.9871 7.0536 11.3463 7.05921 11.5652 6.84593L11.5708 6.84032L13.5071 4.93206C13.7316 4.71317 13.7316 4.35958 13.5183 4.14069ZM22.4086 14.7091L22.403 14.7035C20.3095 12.5763 16.8859 12.5539 14.7587 14.653L14.7082 14.7035C12.5811 16.8306 12.5811 20.2767 14.7026 22.4039C16.8241 24.531 20.2758 24.531 22.403 22.4095C24.5301 20.2824 24.5301 16.8363 22.4086 14.7091ZM14.2368 18.5537C14.2368 16.1684 16.1731 14.232 18.5584 14.232C19.5069 14.232 20.433 14.5463 21.1851 15.1244L15.1291 21.186C14.5511 20.4283 14.2368 19.5022 14.2368 18.5537ZM21.6116 21.6069C20.0794 23.1391 17.6436 23.2963 15.9261 21.9773L21.9821 15.9214C23.3066 17.6388 23.1495 20.0747 21.6116 21.6069Z" fill="black"/>
</svg>
