<svg width="20" height="21" viewBox="0 0 20 21" fill="none" xmlns="http://www.w3.org/2000/svg">
<g clip-path="url(#clip0_1294_2241)">
<path d="M4.63873 0.50252C3.4099 0.503855 2.2319 0.993108 1.36369 1.86272C0.495489 2.73233 0.00815147 3.91112 0.00882022 5.13993L1.29982e-06 11.5537C-0.000875822 12.723 0.442188 13.8491 1.23965 14.7043C2.03711 15.5595 3.12951 16.0801 4.29606 16.1609V20.1671C4.29625 20.233 4.31593 20.2974 4.35263 20.3521C4.38932 20.4068 4.44139 20.4494 4.50228 20.4746C4.56317 20.4998 4.63014 20.5064 4.69478 20.4936C4.75942 20.4808 4.81882 20.4492 4.8655 20.4027L9.06455 16.1949H15.37C15.9788 16.1946 16.5815 16.0742 17.1438 15.8408C17.706 15.6074 18.2167 15.2655 18.6467 14.8345C19.0767 14.4036 19.4176 13.8922 19.6497 13.3294C19.8819 12.7667 20.001 12.1637 20 11.555V5.14245C20.0024 4.53401 19.8848 3.93105 19.6538 3.36816C19.4228 2.80527 19.083 2.29351 18.6538 1.86222C18.2246 1.43093 17.7145 1.08859 17.1527 0.854833C16.591 0.621074 15.9886 0.500492 15.3801 0.5L4.63873 0.50252ZM4.63873 1.16771H15.3801C15.9013 1.16653 16.4175 1.26865 16.8989 1.46819C17.3803 1.66772 17.8174 1.9607 18.1849 2.33019C18.5524 2.69968 18.843 3.13835 19.04 3.62084C19.2369 4.10333 19.3362 4.62007 19.3322 5.14119V11.5537C19.3352 12.0755 19.2349 12.5928 19.0369 13.0757C18.8389 13.5585 18.5472 13.9974 18.1787 14.3669C17.8103 14.7365 17.3722 15.0294 16.8899 15.2287C16.4077 15.4281 15.8907 15.5299 15.3688 15.5284H8.92471C8.83626 15.5287 8.75153 15.564 8.68912 15.6267L4.96125 19.3621V15.861C4.96092 15.7729 4.92577 15.6885 4.86347 15.6262C4.80117 15.5639 4.71676 15.5288 4.62865 15.5284C4.1068 15.5303 3.58975 15.4287 3.1074 15.2295C2.62504 15.0304 2.18693 14.7376 1.81839 14.3681C1.44985 13.9986 1.15819 13.5598 0.960249 13.0769C0.762313 12.5941 0.662031 12.0768 0.665197 11.555L0.676535 5.14245C0.674042 4.6209 0.774742 4.10401 0.972838 3.62154C1.17093 3.13907 1.46251 2.70055 1.83078 2.33123C2.19906 1.96191 2.63675 1.66908 3.11866 1.46961C3.60056 1.27014 4.11717 1.16796 4.63873 1.16897V1.16771ZM6.66581 7.3484C6.40092 7.34973 6.14726 7.45554 5.95995 7.64285C5.77264 7.83015 5.66683 8.08381 5.6655 8.3487C5.6655 8.89672 6.11778 9.349 6.66581 9.349C6.93071 9.34768 7.18437 9.24186 7.37168 9.05456C7.55899 8.86725 7.6648 8.61359 7.66613 8.3487C7.6648 8.08381 7.55899 7.83015 7.37168 7.64285C7.18437 7.45554 6.93071 7.34973 6.66581 7.3484ZM9.99935 7.3484C9.73446 7.34973 9.48079 7.45554 9.29349 7.64285C9.10618 7.83015 9.00036 8.08381 8.99904 8.3487C8.99904 8.89672 9.45006 9.349 9.99935 9.349C10.264 9.34735 10.5174 9.24139 10.7044 9.05412C10.8914 8.86685 10.9971 8.61337 10.9984 8.3487C10.9971 8.08403 10.8914 7.83056 10.7044 7.64329C10.5174 7.45602 10.264 7.35006 9.99935 7.3484ZM13.3329 7.3484C13.068 7.34973 12.8143 7.45554 12.627 7.64285C12.4397 7.83015 12.3339 8.08381 12.3326 8.3487C12.3326 8.89672 12.7836 9.349 13.3329 9.349C13.5976 9.34735 13.8509 9.24139 14.0379 9.05412C14.225 8.86685 14.3306 8.61337 14.3319 8.3487C14.3306 8.08403 14.225 7.83056 14.0379 7.64329C13.8509 7.45602 13.5976 7.35006 13.3329 7.3484ZM6.66581 8.01611C6.70978 8.01526 6.75348 8.02327 6.79428 8.03967C6.83509 8.05606 6.87218 8.08051 6.90333 8.11155C6.93449 8.14259 6.95908 8.17958 6.97563 8.22032C6.99218 8.26107 7.00036 8.30473 6.99967 8.3487C7.00036 8.39267 6.99218 8.43633 6.97563 8.47708C6.95908 8.51782 6.93449 8.55482 6.90333 8.58586C6.87218 8.61689 6.83509 8.64134 6.79428 8.65774C6.75348 8.67413 6.70978 8.68215 6.66581 8.6813C6.62184 8.68215 6.57815 8.67413 6.53735 8.65774C6.49654 8.64134 6.45945 8.61689 6.4283 8.58586C6.39714 8.55482 6.37255 8.51782 6.356 8.47708C6.33945 8.43633 6.33127 8.39267 6.33196 8.3487C6.3311 8.30462 6.33915 8.26083 6.35563 8.21994C6.3721 8.17904 6.39666 8.1419 6.42783 8.11072C6.45901 8.07955 6.49615 8.05499 6.53705 8.03852C6.57794 8.02204 6.62174 8.01525 6.66581 8.01611ZM9.99935 8.01611C10.0432 8.01543 10.0868 8.02357 10.1274 8.04004C10.1681 8.05651 10.205 8.08099 10.236 8.11201C10.2671 8.14303 10.2915 8.17996 10.308 8.22062C10.3245 8.26128 10.3326 8.30484 10.3319 8.3487C10.3326 8.39257 10.3245 8.43612 10.308 8.47678C10.2915 8.51744 10.2671 8.55438 10.236 8.5854C10.205 8.61642 10.1681 8.64089 10.1274 8.65736C10.0868 8.67384 10.0432 8.68198 9.99935 8.6813C9.95538 8.68215 9.91169 8.67413 9.87088 8.65774C9.83007 8.64134 9.79299 8.61689 9.76183 8.58586C9.73067 8.55482 9.70609 8.51782 9.68954 8.47708C9.67299 8.43633 9.66481 8.39267 9.66549 8.3487C9.66464 8.30462 9.67269 8.26083 9.68916 8.21994C9.70564 8.17904 9.7302 8.1419 9.76137 8.11072C9.79254 8.07955 9.82969 8.05499 9.87058 8.03852C9.91148 8.02204 9.95527 8.01525 9.99935 8.01611ZM13.3329 8.01611C13.3768 8.01543 13.4203 8.02357 13.461 8.04004C13.5016 8.05651 13.5386 8.08099 13.5696 8.11201C13.6006 8.14303 13.6251 8.17996 13.6416 8.22062C13.658 8.26128 13.6662 8.30484 13.6655 8.3487C13.6662 8.39257 13.658 8.43612 13.6416 8.47678C13.6251 8.51744 13.6006 8.55438 13.5696 8.5854C13.5386 8.61642 13.5016 8.64089 13.461 8.65736C13.4203 8.67384 13.3768 8.68198 13.3329 8.6813C13.2889 8.68215 13.2452 8.67413 13.2044 8.65774C13.1636 8.64134 13.1265 8.61689 13.0954 8.58586C13.0642 8.55482 13.0396 8.51782 13.0231 8.47708C13.0065 8.43633 12.9983 8.39267 12.999 8.3487C12.9982 8.30462 13.0062 8.26083 13.0227 8.21994C13.0392 8.17904 13.0637 8.1419 13.0949 8.11072C13.1261 8.07955 13.1632 8.05499 13.2041 8.03852C13.245 8.02204 13.2888 8.01525 13.3329 8.01611Z" fill="black"/>
</g>
<defs>
<clipPath id="clip0_1294_2241">
<rect width="20" height="20" fill="white" transform="translate(0 0.5)"/>
</clipPath>
</defs>
</svg>
