<svg width="40" height="30" viewBox="0 0 40 30" fill="none" xmlns="http://www.w3.org/2000/svg">
<path d="M33.0075 7.84399L22.7217 13.0171V29.7997H39.9999V13.5415H33.0075V7.84399Z" fill="#281266"/>
<path d="M31.0733 11.0896L24.582 14.2636V27.8905H31.0733V11.0896Z" fill="#4169E1"/>
<path d="M22.9589 18.2493H17.1836V20.9699C17.4167 20.8311 18.09 20.5201 18.9188 20.3869C19.9547 20.2203 20.4468 20.1648 21.3273 20.2758C22.0318 20.3647 22.7086 20.7755 22.9589 20.9699V18.2493Z" fill="#4169E1" stroke="#4169E1"/>
<path d="M22.7215 16.6262H17.2803V18.249H22.7215V16.6262Z" fill="#281266"/>
<path d="M23.1976 20.6304C21.3719 19.5772 18.7676 20.0799 17.3178 20.6304L17.1836 20.7501V22.3059C17.1836 22.3059 17.291 22.1384 18.0964 21.7554C18.9019 21.3724 20.3517 21.3006 20.9155 21.3724C21.4793 21.4442 22.768 21.8751 23.1976 22.3059V20.6304Z" fill="#281266"/>
<path d="M17.2782 13.0468L7.15948 7.60561C7.15948 7.60561 6.84924 7.51014 6.84924 7.79652V13.5718H0V29.7523H17.2782V13.0468Z" fill="#281266"/>
<path d="M6.8256 15.4329H2.00488V18.2489H6.8256V15.4329Z" fill="#4169E1"/>
<path d="M37.9443 15.4329H33.1235V18.2489H37.9443V15.4329Z" fill="#4169E1"/>
<path d="M6.8256 20.2539H2.00488V23.07H6.8256V20.2539Z" fill="#4169E1" fill-opacity="0.5"/>
<path d="M37.9443 20.2539H33.1235V23.07H37.9443V20.2539Z" fill="#4169E1" fill-opacity="0.5"/>
<path d="M6.8256 25.0745H2.00488V27.8905H6.8256V25.0745Z" fill="#4169E1"/>
<path d="M37.9931 25.0745H33.1724V27.8905H37.9931V25.0745Z" fill="#4169E1"/>
<path d="M15.3467 14.2162L8.83154 10.8989L8.85541 27.9385H15.3467V14.2162Z" fill="#4169E1"/>
<path d="M20.0504 0.200195L8.11914 6.31133L20.0504 12.4225L32.0787 6.31133L20.0504 0.200195Z" fill="#281266"/>
<path d="M19.711 1.99487L11.4658 6.35997L20.0505 10.6281L28.0532 6.35997L19.711 1.99487Z" fill="#4169E1"/>
</svg>
