<svg width="45" height="45" viewBox="0 0 45 45" fill="none" xmlns="http://www.w3.org/2000/svg">
<circle cx="22.5" cy="22.5" r="22.5" fill="#4169E1" fill-opacity="0.1"/>
<g clip-path="url(#clip0_1294_493)">
<path d="M33.4772 21.0363C33.3386 21.0363 33.2056 20.9809 33.1076 20.8824C33.0096 20.7838 32.9545 20.6501 32.9545 20.5108C32.9545 17.4227 31.7585 14.5186 29.5861 12.3355C29.4908 12.2364 29.4381 12.1036 29.4393 11.9658C29.4405 11.828 29.4955 11.6962 29.5924 11.5988C29.6893 11.5013 29.8204 11.4461 29.9575 11.4449C30.0946 11.4437 30.2266 11.4966 30.3252 11.5924C31.494 12.7607 32.4207 14.1505 33.0514 15.6814C33.6822 17.2122 34.0046 18.8537 33.9999 20.5108C33.9999 20.6501 33.9449 20.7838 33.8468 20.8824C33.7488 20.9809 33.6159 21.0363 33.4772 21.0363ZM11.5227 21.0363C11.3841 21.0363 11.2511 20.9809 11.1531 20.8824C11.0551 20.7838 11 20.6501 11 20.5108C11 17.141 12.3047 13.9741 14.6748 11.5924C14.7734 11.4966 14.9054 11.4437 15.0425 11.4449C15.1795 11.4461 15.3106 11.5013 15.4075 11.5988C15.5044 11.6962 15.5594 11.828 15.5606 11.9658C15.5618 12.1036 15.5091 12.2364 15.4139 12.3355C14.3425 13.4065 13.4931 14.6805 12.9149 16.0838C12.3367 17.4871 12.0412 18.9918 12.0455 20.5108C12.0455 20.6501 11.9904 20.7838 11.8923 20.8824C11.7943 20.9809 11.6614 21.0363 11.5227 21.0363ZM24.0682 14.3935C23.9295 14.3935 23.7966 14.3381 23.6985 14.2396C23.6005 14.141 23.5454 14.0073 23.5454 13.868V12.1022C23.5454 11.523 23.076 11.0511 22.5 11.0511C21.9239 11.0511 21.4545 11.523 21.4545 12.1022V13.868C21.4545 14.0073 21.3995 14.141 21.3014 14.2396C21.2034 14.3381 21.0704 14.3935 20.9318 14.3935C20.7932 14.3935 20.6602 14.3381 20.5622 14.2396C20.4641 14.141 20.4091 14.0073 20.4091 13.868V12.1022C20.4091 10.9428 21.3468 10 22.5 10C23.6531 10 24.5909 10.9428 24.5909 12.1022V13.868C24.5909 14.0073 24.5358 14.141 24.4378 14.2396C24.3397 14.3381 24.2068 14.3935 24.0682 14.3935ZM22.5 35.2258C20.4823 35.2258 18.8409 33.5756 18.8409 31.547C18.8409 31.4077 18.896 31.274 18.994 31.1754C19.092 31.0769 19.225 31.0215 19.3636 31.0215C19.5023 31.0215 19.6352 31.0769 19.7332 31.1754C19.8313 31.274 19.8863 31.4077 19.8863 31.547C19.8863 32.9954 21.0593 34.1747 22.5 34.1747C23.9406 34.1747 25.1136 32.9954 25.1136 31.547C25.1136 31.4077 25.1687 31.274 25.2667 31.1754C25.3647 31.0769 25.4977 31.0215 25.6363 31.0215C25.775 31.0215 25.9079 31.0769 26.006 31.1754C26.104 31.274 26.1591 31.4077 26.1591 31.547C26.1591 33.5756 24.5177 35.2258 22.5 35.2258Z" fill="#4169E1"/>
<path d="M31.3863 32.0727H13.6136C13.2935 32.0715 12.9815 31.9721 12.7192 31.7877C12.4569 31.6033 12.257 31.3427 12.1461 31.0409C12.0352 30.7391 12.0187 30.4104 12.0988 30.0988C12.1789 29.7873 12.3518 29.5078 12.5943 29.2978C13.4052 28.6115 14.057 27.7552 14.504 26.7889C14.951 25.8226 15.1823 24.7697 15.1818 23.704V20.5108C15.1818 16.4537 18.4645 13.1533 22.4999 13.1533C26.5354 13.1533 29.8181 16.4537 29.8181 20.5108V23.704C29.8181 25.8619 30.758 27.8978 32.3972 29.2905C32.6425 29.4991 32.8182 29.7784 32.9006 30.0906C32.9829 30.4028 32.968 30.733 32.8577 31.0364C32.7475 31.3398 32.5473 31.6019 32.2841 31.7872C32.021 31.9725 31.7076 32.0722 31.3863 32.0727ZM22.4999 14.2044C19.0405 14.2044 16.2272 17.0328 16.2272 20.5108V23.704C16.2284 24.9208 15.965 26.123 15.4556 27.2267C14.9461 28.3304 14.2029 29.3088 13.278 30.0935C13.1959 30.1628 13.1369 30.2558 13.1091 30.36C13.0814 30.4641 13.0861 30.5743 13.1228 30.6756C13.1594 30.7769 13.2261 30.8645 13.3139 30.9264C13.4017 30.9883 13.5064 31.0215 13.6136 31.0216H31.3863C31.4931 31.0216 31.5974 30.9887 31.6851 30.9273C31.7728 30.8659 31.8396 30.7789 31.8767 30.6781C31.9137 30.5773 31.9191 30.4676 31.8922 30.3636C31.8652 30.2596 31.8073 30.1665 31.726 30.0967C30.8003 29.3118 30.0562 28.333 29.5461 27.2287C29.0359 26.1245 28.772 24.9215 28.7726 23.704V20.5108C28.7726 17.0328 25.9593 14.2044 22.4999 14.2044Z" fill="#4169E1"/>
</g>
<circle cx="28" cy="8" r="5" fill="#4169E1"/>
<path d="M27.808 11.072C26.168 11.072 25.344 10.36 25.304 9.2H26.44C26.464 9.888 27 10.224 27.816 10.224C28.752 10.224 29.224 9.856 29.224 9.28C29.224 8.68 28.76 8.424 27.96 8.424H27.16V7.664H27.912C28.744 7.664 29.104 7.328 29.104 6.832C29.104 6.272 28.608 6.016 27.84 6.016C27.064 6.016 26.552 6.36 26.52 7.016H25.416C25.44 5.8 26.432 5.16 27.88 5.16C29.336 5.16 30.264 5.68 30.264 6.696C30.264 7.368 29.808 7.848 29.104 7.992V8.032C29.872 8.112 30.376 8.616 30.376 9.384C30.376 10.416 29.44 11.072 27.808 11.072Z" fill="white"/>
<defs>
<clipPath id="clip0_1294_493">
<rect width="23" height="25.2258" fill="white" transform="translate(11 10)"/>
</clipPath>
</defs>
</svg>
