<svg width="20" height="21" viewBox="0 0 20 21" fill="none" xmlns="http://www.w3.org/2000/svg">
<g clip-path="url(#clip0_3671_4113)">
<path d="M10.5 8.83333C8.2025 8.83333 6.33333 6.96417 6.33333 4.66667C6.33333 2.36917 8.2025 0.5 10.5 0.5C12.7975 0.5 14.6667 2.36917 14.6667 4.66667C14.6667 6.96417 12.7975 8.83333 10.5 8.83333ZM10.5 1.33333C8.66167 1.33333 7.16667 2.82833 7.16667 4.66667C7.16667 6.505 8.66167 8 10.5 8C12.3383 8 13.8333 6.505 13.8333 4.66667C13.8333 2.82833 12.3383 1.33333 10.5 1.33333ZM8.41667 18H3.41667C3.30616 18 3.20018 17.9561 3.12204 17.878C3.0439 17.7998 3 17.6938 3 17.5833V14.25C3 12.1825 4.6825 10.5 6.75 10.5H14.25C14.7552 10.4997 15.2552 10.6019 15.7197 10.8004C16.1842 10.9989 16.6036 11.2897 16.9525 11.655C16.9901 11.6947 17.0196 11.7415 17.0392 11.7926C17.0588 11.8437 17.0681 11.8982 17.0666 11.9529C17.0651 12.0076 17.0529 12.0615 17.0306 12.1114C17.0083 12.1614 16.9764 12.2065 16.9367 12.2442C16.8969 12.2818 16.8502 12.3113 16.7991 12.3308C16.748 12.3504 16.6935 12.3597 16.6388 12.3583C16.5841 12.3568 16.5302 12.3446 16.4802 12.3223C16.4302 12.3 16.3851 12.2681 16.3475 12.2283C16.0766 11.9451 15.751 11.7197 15.3905 11.5659C15.03 11.412 14.642 11.3329 14.25 11.3333H6.75C5.14167 11.3333 3.83333 12.6417 3.83333 14.25V17.1667H8.41667C8.52717 17.1667 8.63315 17.2106 8.71129 17.2887C8.78943 17.3668 8.83333 17.4728 8.83333 17.5833C8.83333 17.6938 8.78943 17.7998 8.71129 17.878C8.63315 17.9561 8.52717 18 8.41667 18Z" fill="#F2F0F0"/>
<path d="M15.0833 20.5C15.006 20.5001 14.9302 20.4787 14.8644 20.438C14.7986 20.3974 14.7454 20.3392 14.7108 20.27L13.1592 17.1667H10.9167C10.8062 17.1667 10.7002 17.1228 10.622 17.0447C10.5439 16.9665 10.5 16.8605 10.5 16.75C10.5 16.6395 10.5439 16.5336 10.622 16.4554C10.7002 16.3773 10.8062 16.3334 10.9167 16.3334H13.4167C13.494 16.3334 13.5698 16.3549 13.6356 16.3955C13.7013 16.4361 13.7545 16.4942 13.7892 16.5634L15.0542 19.0934L17.2 14.0859C17.2313 14.0128 17.2828 13.9502 17.3485 13.9055C17.4142 13.8607 17.4914 13.8357 17.5708 13.8334C17.6498 13.8334 17.7273 13.8548 17.795 13.8953C17.8628 13.9358 17.9184 13.9939 17.9558 14.0634L20.3408 18.8334H22.5833C22.6938 18.8334 22.7998 18.8773 22.878 18.9554C22.9561 19.0336 23 19.1395 23 19.25C23 19.3605 22.9561 19.4665 22.878 19.5447C22.7998 19.6228 22.6938 19.6667 22.5833 19.6667H20.0833C20.006 19.6667 19.9302 19.6452 19.8644 19.6046C19.7987 19.5639 19.7455 19.5058 19.7108 19.4367L17.6125 15.24L15.4667 20.2475C15.4354 20.3206 15.3838 20.3832 15.3181 20.428C15.2524 20.4727 15.1753 20.4977 15.0958 20.5H15.0833Z" fill="#F2F0F0"/>
</g>
<defs>
<clipPath id="clip0_3671_4113">
<rect width="20" height="20" fill="white" transform="translate(0 0.5)"/>
</clipPath>
</defs>
</svg>
