<svg width="20" height="21" viewBox="0 0 20 21" fill="none" xmlns="http://www.w3.org/2000/svg">
<path fill-rule="evenodd" clip-rule="evenodd" d="M2.57274 7.39136V6.20679C2.57274 6.05014 2.70322 5.92345 2.8624 5.92345C3.02158 5.92345 3.14942 6.0501 3.14942 6.20679V7.1078H3.84871C4.00785 7.1078 4.13837 7.23472 4.13837 7.39136C4.13837 7.54774 4.0079 7.67471 3.84871 7.67471H2.86235C2.70322 7.67466 2.57274 7.54774 2.57274 7.39136ZM10.1066 0.5H9.89597C8.11024 0.554865 6.6745 1.99921 6.6745 3.76685C6.6745 5.56913 8.16698 7.03548 10.0013 7.03548C11.8356 7.03548 13.3281 5.56908 13.3281 3.76685C13.3281 1.99921 11.8924 0.554865 10.1066 0.5ZM0.597529 7.67466C0.728002 8.68593 1.54468 9.48922 2.57274 9.61716V9.38846C2.57274 9.23181 2.70322 9.10512 2.8624 9.10512C3.02158 9.10512 3.14942 9.23177 3.14942 9.38846V9.61716C4.18007 9.48922 4.9968 8.68589 5.12722 7.67466H4.89499C4.73585 7.67466 4.60538 7.54774 4.60538 7.39132C4.60538 7.23467 4.73585 7.10775 4.89499 7.10775H5.12722C4.99675 6.09648 4.18007 5.29342 3.14942 5.16521V5.39391C3.14942 5.55056 3.02158 5.67747 2.8624 5.67747C2.70326 5.67747 2.57274 5.55056 2.57274 5.39391V5.16521C1.54468 5.29342 0.728002 6.09648 0.597529 7.10775H0.829763C0.988947 7.10775 1.11678 7.23467 1.11678 7.39132C1.11678 7.5477 0.988947 7.67466 0.829763 7.67466H0.597529ZM5.72212 7.39136C5.72212 5.84113 4.43838 4.57991 2.86235 4.57991C1.28374 4.57991 0 5.84118 0 7.39136C0 8.94133 1.28378 10.2026 2.86235 10.2026C4.43838 10.2026 5.72212 8.94133 5.72212 7.39136ZM17.3751 7.22878C17.4481 7.33186 17.4455 7.47007 17.3646 7.56828L16.8636 8.18492C16.7638 8.30724 16.5832 8.32674 16.4566 8.22929C16.3313 8.13135 16.3131 7.95314 16.4122 7.83082L16.7801 7.3798L16.026 6.32058C15.9321 6.19237 15.966 6.01572 16.0965 5.92599C16.227 5.83626 16.407 5.86729 16.4957 5.99573L17.3751 7.22878ZM17.4273 9.61721C18.4553 9.48926 19.2746 8.68593 19.4051 7.67471H19.1728C19.0136 7.67471 18.8832 7.54779 18.8832 7.39136C18.8832 7.23472 19.0136 7.1078 19.1728 7.1078H19.4051C19.2746 6.09653 18.4553 5.29346 17.4273 5.16525V5.39395C17.4273 5.5506 17.2994 5.67752 17.1402 5.67752C16.9811 5.67752 16.8506 5.5506 16.8506 5.39395V5.16525C15.8226 5.29346 15.0059 6.09653 14.8728 7.1078H15.1076C15.2668 7.1078 15.3947 7.23472 15.3947 7.39136C15.3947 7.54774 15.2668 7.67471 15.1076 7.67471H14.8728C15.0059 8.68598 15.8226 9.48926 16.8506 9.61721V9.38851C16.8506 9.23186 16.9811 9.10517 17.1402 9.10517C17.2994 9.10517 17.4273 9.23181 17.4273 9.38851V9.61721ZM17.1402 4.57986C15.5616 4.57986 14.2779 5.84113 14.2779 7.39132C14.2779 8.94129 15.5616 10.2026 17.1402 10.2026C18.7162 10.2026 20 8.94129 20 7.39132C20 5.84113 18.7162 4.57986 17.1402 4.57986ZM11.3529 11.5213C11.3529 12.2543 10.7449 12.8505 10.0013 12.8505C9.25505 12.8505 8.64712 12.2543 8.64712 11.5213C8.64712 10.7885 9.25505 10.1921 10.0013 10.1921C10.7449 10.1921 11.3529 10.7884 11.3529 11.5213ZM8.07044 11.5213C8.07044 12.5667 8.93673 13.4174 10.0013 13.4174C11.0632 13.4174 11.9295 12.5667 11.9295 11.5213C11.9295 10.4759 11.0632 9.62542 10.0013 9.62542C8.93673 9.62542 8.07044 10.4759 8.07044 11.5213ZM15.1102 11.971C15.1569 11.9181 15.1924 11.8567 15.2148 11.7902C15.2372 11.7238 15.246 11.6536 15.2407 11.5838C15.206 11.1096 14.6058 10.9141 14.291 11.2703L11.6765 14.2217C11.2407 14.7122 10.6615 14.9712 10.0013 14.9712C9.33855 14.9712 8.75933 14.7122 8.32616 14.2217L5.71172 11.2703C5.39153 10.9127 4.78932 11.1147 4.75934 11.5838C4.75153 11.7266 4.79586 11.8641 4.8924 11.971L7.41031 14.975C7.70778 15.3291 7.87214 15.7191 7.9113 16.1622H7.95564C8.34965 16.1622 8.67056 16.4771 8.67056 16.8642V19.7977C8.67056 19.8441 8.66534 19.8893 8.65752 19.9331H11.7469C11.9321 19.9331 12.0835 19.7857 12.0835 19.6044V16.3632C12.0835 15.8358 12.2478 15.3817 12.5897 14.975L15.1102 11.971ZM3.14415 19.9331C3.06851 19.9331 3.00587 19.871 3.00587 19.7977V17.3339L5.26024 18.5021V18.6103C5.26024 18.767 5.39071 18.8936 5.5499 18.8936C5.70904 18.8936 5.83692 18.767 5.83692 18.6103V18.5021L8.09393 17.3339V19.7977C8.09393 19.871 8.03128 19.9331 7.95564 19.9331H3.14415ZM7.95564 16.7291L8.00521 16.7388L5.83692 17.8622C5.80008 17.5271 5.29972 17.5271 5.26288 17.8622L3.09459 16.7388L3.14415 16.7291H7.95564ZM5.02805 15.7632C5.02805 15.7065 5.04632 15.6678 5.05935 15.6514H6.04044C6.05089 15.6678 6.07174 15.7065 6.07174 15.7632V16.1622H5.02805V15.7632ZM15.4364 10.7905C15.9037 11.1915 15.9496 11.872 15.546 12.3399L13.0359 15.3352C12.7776 15.6408 12.6601 15.9672 12.6601 16.3631V19.6043C12.6601 20.0982 12.2505 20.5 11.7469 20.5H8.25311C8.20092 20.5 8.14876 20.4949 8.09656 20.4862C8.05223 20.4951 8.00525 20.5 7.95564 20.5H3.14415C2.75014 20.5 2.42923 20.1849 2.42923 19.7977V16.8642C2.42923 16.477 2.75019 16.1622 3.14415 16.1622H4.45142V15.7632C4.45142 15.3827 4.70973 15.0848 5.03591 15.0848H6.06134C6.39011 15.0848 6.64842 15.3827 6.64842 15.7632V16.1622H7.32945C7.29551 15.8539 7.17812 15.5876 6.96674 15.3352L4.45401 12.34C4.26094 12.1195 4.1644 11.8372 4.18525 11.5446C4.25508 10.5637 5.4957 10.1653 6.14479 10.8982L8.75924 13.8494C9.08538 14.2179 9.50287 14.4046 10.0012 14.4046C10.497 14.4046 10.9145 14.2179 11.2406 13.8494L13.8551 10.8982C14.2596 10.4405 14.9693 10.3923 15.4364 10.7905ZM9.77431 3.94399C9.69603 3.84551 9.69081 3.70734 9.76386 3.60426L10.8023 2.14813C10.8462 2.08655 10.9132 2.04462 10.9885 2.03154C11.0639 2.01847 11.1414 2.03532 11.2041 2.0784C11.2667 2.12161 11.3093 2.18746 11.3225 2.2615C11.3357 2.33554 11.3185 2.4117 11.2746 2.47326L10.3614 3.75555L10.818 4.31786C10.9705 4.50589 10.8293 4.77839 10.5936 4.77839C10.5101 4.77839 10.424 4.74196 10.3692 4.67196L9.77431 3.94399ZM9.71166 1.07994V1.4148C9.71166 1.57145 9.84213 1.6981 10.0013 1.6981C10.1605 1.6981 10.2883 1.57145 10.2883 1.4148V1.07994C11.5747 1.21248 12.6001 2.21965 12.7358 3.48346H12.394C12.2348 3.48346 12.1044 3.61038 12.1044 3.7668C12.1044 3.92345 12.2348 4.05014 12.394 4.05014H12.7358C12.6001 5.31422 11.5747 6.32139 10.2883 6.45366V6.1188C10.2883 5.96238 10.1605 5.83546 10.0013 5.83546C9.84213 5.83546 9.71166 5.96238 9.71166 6.1188V6.45366C8.42529 6.32134 7.39986 5.31418 7.26676 4.05014H7.60598C7.64397 4.05039 7.68164 4.04324 7.71681 4.0291C7.75198 4.01497 7.78395 3.99413 7.81087 3.96778C7.8378 3.94144 7.85915 3.91012 7.87369 3.87562C7.88823 3.84112 7.89567 3.80414 7.89559 3.7668C7.89565 3.72947 7.88819 3.6925 7.87364 3.65801C7.85909 3.62353 7.83774 3.59221 7.81082 3.56587C7.7839 3.53953 7.75194 3.51869 7.71678 3.50455C7.68162 3.4904 7.64396 3.48324 7.60598 3.48346H7.26676C7.39986 2.21969 8.42533 1.21253 9.71166 1.07994Z" fill="#333333"/>
</svg>
