<svg width="16" height="12" viewBox="0 0 16 12" fill="none" xmlns="http://www.w3.org/2000/svg">
<path fill-rule="evenodd" clip-rule="evenodd" d="M10.323 5.6C10.323 8.14051 8.26356 10.2 5.72305 10.2C3.18254 10.2 1.12305 8.14051 1.12305 5.6C1.12305 3.05949 3.18254 1 5.72305 1C8.26356 1 10.323 3.05949 10.323 5.6ZM10.1218 9.06608C9.09628 10.3657 7.50709 11.2 5.72305 11.2C2.63025 11.2 0.123047 8.69279 0.123047 5.6C0.123047 2.50721 2.63025 0 5.72305 0C8.81584 0 11.323 2.50721 11.323 5.6C11.323 6.55016 11.0864 7.44504 10.6689 8.22894L15.0774 11.1679L14.5227 12L10.1218 9.06608Z" fill="black" fill-opacity="0.59"/>
</svg>
