<svg width="46" height="46" viewBox="0 0 46 46" fill="none" xmlns="http://www.w3.org/2000/svg">
<path d="M25.3535 22.5454L14.1035 22.5251" stroke="#333333" stroke-width="2" stroke-linecap="round" stroke-linejoin="round"/>
<path d="M8.53322 38.913C8.43386 39.1829 8.41963 39.4767 8.49244 39.7549C8.56524 40.0331 8.72159 40.2823 8.94041 40.4689C9.15922 40.6555 9.42998 40.7705 9.7162 40.7985C10.0024 40.8264 10.2903 40.7659 10.5411 40.6252L40.1026 23.7875C40.3226 23.6662 40.5062 23.4883 40.6341 23.2721C40.7621 23.056 40.8298 22.8095 40.8303 22.5583C40.8307 22.3071 40.7639 22.0604 40.6367 21.8437C40.5095 21.6271 40.3266 21.4485 40.107 21.3265L10.6061 4.42487C10.3566 4.28473 10.0703 4.22405 9.78533 4.25094C9.50042 4.27783 9.23049 4.39101 9.01159 4.57537C8.7927 4.75972 8.63526 5.00647 8.56031 5.28266C8.48536 5.55885 8.49646 5.85134 8.59212 6.12106L14.1015 22.5261L8.53322 38.913Z" stroke="#333333" stroke-width="2" stroke-linecap="round" stroke-linejoin="round"/>
</svg>
