<svg width="24" height="30" viewBox="0 0 24 30" fill="none" xmlns="http://www.w3.org/2000/svg">
<g clip-path="url(#clip0_1503_3127)">
<path d="M15.8714 5.81787H13.9075V3.854C13.9075 3.74544 13.8644 3.64133 13.7876 3.56457C13.7109 3.4878 13.6067 3.44468 13.4982 3.44468H10.5018C10.3933 3.44468 10.2892 3.4878 10.2124 3.56457C10.1356 3.64133 10.0925 3.74544 10.0925 3.854V5.81781H8.1287C8.02014 5.81781 7.91602 5.86094 7.83926 5.9377C7.7625 6.01447 7.71937 6.11858 7.71937 6.22714V9.22355C7.71937 9.33211 7.7625 9.43622 7.83926 9.51299C7.91602 9.58975 8.02014 9.63288 8.1287 9.63288H10.0925V11.5967C10.0925 11.7052 10.1356 11.8094 10.2124 11.8861C10.2892 11.9629 10.3933 12.006 10.5018 12.006H13.4982C13.6067 12.006 13.7109 11.9629 13.7876 11.8861C13.8644 11.8094 13.9075 11.7052 13.9075 11.5967V9.63288H15.8714C15.9799 9.63288 16.0841 9.58975 16.1608 9.51299C16.2376 9.43622 16.2807 9.33211 16.2807 9.22355V6.22714C16.2807 6.11859 16.2376 6.01449 16.1608 5.93774C16.084 5.86099 15.9799 5.81787 15.8714 5.81787ZM15.4621 8.81423H13.4982C13.3896 8.81423 13.2855 8.85736 13.2088 8.93412C13.132 9.01088 13.0889 9.11499 13.0889 9.22355V11.1874H10.9112V9.22355C10.9112 9.11499 10.868 9.01088 10.7913 8.93412C10.7145 8.85736 10.6104 8.81423 10.5018 8.81423H8.53802V6.63646H10.5018C10.6104 6.63646 10.7145 6.59333 10.7913 6.51657C10.868 6.43981 10.9112 6.3357 10.9112 6.22714V4.26332H13.0889V6.22714C13.0889 6.3357 13.132 6.43981 13.2088 6.51657C13.2855 6.59333 13.3896 6.63646 13.4982 6.63646H15.4621V8.81423ZM23.3427 6.95404C22.9188 6.53009 22.3532 6.29661 21.7503 6.29661C21.1474 6.29661 20.5818 6.53009 20.1579 6.95404L19.1671 7.94483C19.1693 7.87168 19.1708 7.79853 19.1708 7.72537C19.1707 3.77144 15.9539 0.554688 12 0.554688C8.04607 0.554688 4.82932 3.77144 4.82932 7.72537C4.82932 11.6793 8.04607 14.8961 12 14.8961C12.0732 14.8961 12.1464 14.8945 12.2195 14.8923L8.32652 18.7853C8.2885 18.8233 8.25835 18.8684 8.23778 18.9181C8.21721 18.9677 8.20662 19.0209 8.20662 19.0747C8.20662 19.1284 8.21721 19.1817 8.23778 19.2313C8.25835 19.281 8.2885 19.3261 8.32652 19.3641L8.57527 19.6129L0.119893 28.0683C0.0818827 28.1063 0.0517309 28.1514 0.0311595 28.2011C0.0105881 28.2507 0 28.3039 0 28.3577C0 28.4114 0.0105881 28.4647 0.0311595 28.5143C0.0517309 28.564 0.0818827 28.6091 0.119893 28.6471C0.637452 29.1646 1.58053 29.4455 2.59121 29.4454C3.7431 29.4453 4.98264 29.0804 5.77807 28.2849L8.61298 25.45C8.76069 25.3024 8.76589 25.1638 8.79975 24.2619C8.80887 24.0175 8.81899 23.748 8.83185 23.5734L10.6839 21.7215L10.9326 21.9702C11.0094 22.0469 11.1135 22.09 11.222 22.09C11.3305 22.09 11.4346 22.0469 11.5114 21.9702L23.3426 10.139C23.7666 9.71503 24 9.14952 24 8.54648C24 7.94343 23.7666 7.37792 23.3427 6.95404ZM12 14.0774C8.4975 14.0774 5.64797 11.2279 5.64797 7.72537C5.64797 4.2228 8.4975 1.37333 12 1.37333C15.5025 1.37333 18.3521 4.2228 18.3521 7.72537C18.3521 8.1071 18.3177 8.48853 18.2505 8.8613L13.136 13.9758C12.7611 14.0434 12.3809 14.0774 12 14.0774ZM8.14963 23.098C8.08667 23.161 8.04596 23.2428 8.03368 23.331C8.00876 23.5098 7.99567 23.8603 7.98169 24.2312C7.97292 24.4648 7.96052 24.7963 7.9462 24.9591L5.19923 27.7061C4.13827 28.767 2.03453 28.8155 1.03906 28.3067L9.15411 20.1916L10.105 21.1426L8.14963 23.098ZM11.222 21.1019L9.19481 19.0747L10.1591 18.1104L12.1863 20.1376L11.222 21.1019ZM22.7638 9.56013L12.7652 19.5588L10.738 17.5316L20.7366 7.53288C21.0059 7.2636 21.366 7.11525 21.7502 7.11525C22.1345 7.11525 22.4946 7.2636 22.7638 7.53288C23.0331 7.80215 23.1815 8.16212 23.1815 8.54648C23.1815 8.93083 23.0331 9.2908 22.7638 9.56013ZM21.9731 8.32363C22.0111 8.36163 22.0413 8.40675 22.0618 8.45641C22.0824 8.50607 22.093 8.5593 22.093 8.61305C22.093 8.6668 22.0824 8.72003 22.0618 8.76968C22.0413 8.81934 22.0111 8.86446 21.9731 8.90247L17.8642 13.0114C17.7843 13.0913 17.6795 13.1312 17.5748 13.1312C17.4701 13.1312 17.3653 13.0912 17.2854 13.0114C17.2474 12.9734 17.2173 12.9282 17.1967 12.8786C17.1761 12.8289 17.1655 12.7757 17.1655 12.7219C17.1655 12.6682 17.1761 12.615 17.1967 12.5653C17.2173 12.5156 17.2474 12.4705 17.2854 12.4325L21.3943 8.32363C21.4323 8.28562 21.4774 8.25547 21.5271 8.2349C21.5767 8.21432 21.63 8.20374 21.6837 8.20374C21.7375 8.20374 21.7907 8.21432 21.8403 8.2349C21.89 8.25547 21.9351 8.28562 21.9731 8.32363Z" fill="black"/>
</g>
<defs>
<clipPath id="clip0_1503_3127">
<rect width="24" height="28.8907" fill="white" transform="translate(0 0.554688)"/>
</clipPath>
</defs>
</svg>
