<svg width="67" height="58" viewBox="0 0 67 58" fill="none" xmlns="http://www.w3.org/2000/svg">
<rect width="67" height="58" rx="10" fill="#FF0000"/>
<path d="M19.5029 26.7001C16.5399 26.7001 14.1294 24.3115 14.1294 21.3765C14.1294 18.4411 16.5399 16.0525 19.5029 16.0525C22.4657 16.0525 24.8758 18.4408 24.8758 21.3765C24.8758 24.3119 22.4657 26.7001 19.5029 26.7001ZM19.5029 17.5466C17.3635 17.5466 15.6235 19.2648 15.6235 21.3765C15.6235 23.4879 17.3635 25.2059 19.5029 25.2059C21.6417 25.2059 23.3816 23.4879 23.3816 21.3765C23.3816 19.2648 21.6417 17.5466 19.5029 17.5466ZM21.6647 41.4401H12.2935C11.2168 41.4401 10.3408 40.5697 10.3408 39.4997V37.056C10.3408 32.0535 14.4508 27.9833 19.5029 27.9833C21.49 27.9833 23.3813 28.6033 24.971 29.7762C25.1304 29.8939 25.2366 30.0701 25.2661 30.2661C25.2957 30.462 25.2462 30.6617 25.1286 30.8212C25.0108 30.9805 24.8347 31.0866 24.6388 31.1161C24.443 31.1457 24.2434 31.0963 24.0839 30.9788C22.7528 29.9969 21.1689 29.4774 19.5029 29.4774C15.2748 29.4774 11.835 32.8775 11.835 37.056V39.4997C11.835 39.7455 12.0407 39.9459 12.2935 39.9459H21.6651C22.0772 39.9459 22.4121 40.2804 22.4121 40.6929C22.4121 41.1051 22.0772 41.44 21.6647 41.44V41.4401ZM54.7064 40.8746H45.3351C44.9229 40.8746 44.5881 40.5401 44.5881 40.1276C44.5881 39.7154 44.9229 39.3805 45.3351 39.3805H54.7067C54.9595 39.3805 55.1652 39.1807 55.1652 38.9348V36.4911C55.1652 32.3119 51.7254 28.9124 47.4972 28.9124C45.7314 28.9124 44.0074 29.5205 42.6427 30.6251C42.3224 30.8845 41.8522 30.8352 41.5921 30.5146C41.3328 30.1939 41.3817 29.7234 41.7031 29.4637C43.3325 28.145 45.3902 27.4183 47.4972 27.4183C52.549 27.4183 56.659 31.4881 56.659 36.4911V38.9348C56.659 40.0043 55.7832 40.8746 54.7064 40.8746ZM47.4969 26.3309C44.5341 26.3309 42.1241 23.9427 42.1241 21.0073C42.1241 18.0719 44.5341 15.6833 47.4969 15.6833C50.4599 15.6833 52.8704 18.0716 52.8704 21.0073C52.8704 23.943 50.4596 26.3309 47.4969 26.3309ZM47.4969 17.1775C45.3581 17.1775 43.6182 18.8956 43.6182 21.0073C43.6182 23.119 45.3581 24.8368 47.4969 24.8368C49.6363 24.8368 51.3763 23.119 51.3763 21.0073C51.3763 18.8956 49.6359 17.1775 47.4969 17.1775Z" fill="#F2F0F0"/>
<path d="M43.6392 43.871H23.3604C22.0132 43.871 20.9175 42.7832 20.9175 41.4459V38.009C20.9175 31.1402 26.5613 25.5521 33.4998 25.5521C40.4383 25.5521 46.0821 31.1402 46.0821 38.009V41.4459C46.0821 42.7831 44.9863 43.871 43.6392 43.871ZM33.4998 27.0466C27.3857 27.0466 22.4116 31.9646 22.4116 38.0093V41.4463C22.4116 41.9595 22.8373 42.3772 23.3604 42.3772H43.6388C44.1619 42.3772 44.5876 41.9595 44.5876 41.4463V38.0093C44.5879 31.9646 39.6139 27.0466 33.4998 27.0466ZM33.2401 24.6792C29.4332 24.6792 26.3355 21.6111 26.3355 17.8392C26.3355 14.0678 29.4329 11 33.2402 11C37.0477 11 40.145 14.0681 40.145 17.8396C40.145 21.6113 37.0473 24.6792 33.2402 24.6792H33.2401ZM33.2401 12.4941C30.2569 12.4941 27.8296 14.8922 27.8296 17.8396C27.8296 20.7874 30.2569 23.1854 33.2401 23.1854C36.2236 23.1854 38.6508 20.7873 38.6508 17.8396C38.6508 14.8922 36.2236 12.4941 33.2402 12.4941H33.2401Z" fill="#F2F0F0"/>
</svg>
